<?xml version="1.0" encoding="iso-8859-1"?>
<svg version="1.1" id="Capa_1" xmlns="http://www.w3.org/2000/svg" xmlns:xlink="http://www.w3.org/1999/xlink" x="0px" y="0px"
	 viewBox="0 0 455.11 455.11" style="enable-background:new 0 0 455.11 455.11;" xml:space="preserve">
<g>
	<path style="fill:#0091e6;" d="M455.11,227.551c0,23.566-19.1,42.666-42.666,42.666H42.666C19.1,270.217,0,251.117,0,227.551
		s19.1-42.666,42.666-42.666h369.777C436.01,184.885,455.11,203.985,455.11,227.551"/>
	<path style="fill:#0091e6;" d="M170.666,71.114c0-31.417,25.473-56.889,56.889-56.889s56.889,25.472,56.889,56.889
		s-25.473,56.889-56.889,56.889S170.666,102.531,170.666,71.114"/>
	<path style="fill:#0091e6;" d="M170.666,383.996c0-31.418,25.473-56.889,56.889-56.889s56.889,25.473,56.889,56.889
		s-25.473,56.889-56.889,56.889S170.666,415.412,170.666,383.996"/>
</g>
</svg>
